<svg width="87" height="75" viewBox="0 0 87 75" fill="none" xmlns="http://www.w3.org/2000/svg">
<path fill-rule="evenodd" clip-rule="evenodd" d="M24.733 42.2937H31.8385V24.0277H25.6471V31.5316C25.6471 32.0199 25.2526 32.4144 24.7643 32.4144H19.819C19.3307 32.4144 18.9362 32.0199 18.9362 31.5316V24.0277H12.7448V33.305H20.8112C21.2995 33.305 21.694 33.6996 21.694 34.1878C21.694 34.6761 21.2995 35.0706 20.8112 35.0706H12.7448V37.3675H17.8659C18.3542 37.3675 18.7487 37.7621 18.7487 38.2504C18.7487 38.7386 18.3542 39.1332 17.8659 39.1332H12.7448V42.2973L24.733 42.2937ZM42.053 23.4067C41.6858 22.7348 41.6272 21.9809 41.8265 21.3012C42.0257 20.6215 42.4866 20.02 43.1585 19.6528L43.3616 19.5434H43.385C43.9983 19.2778 44.6623 19.2505 45.2639 19.4302C45.9436 19.6294 46.5451 20.0903 46.9123 20.7622L46.967 20.8637C47.2912 21.4575 47.6193 22.0239 47.9553 22.5551L48.0139 21.8911C48.0178 21.8325 48.0217 21.7504 48.0217 21.645C48.0217 20.8481 47.6662 20.1216 47.1076 19.5708C46.5256 19.0005 45.7326 18.6177 44.8849 18.5435C44.8068 18.5357 44.7013 18.5318 44.5724 18.5318C44.2834 18.5318 44.0099 18.5786 43.7443 18.6685C42.2482 19.1763 40.9787 20.9849 40.0646 23.4107C39.0959 25.9771 38.5529 29.188 38.5529 32.3326C38.5529 34.6724 38.8537 36.9576 39.506 38.8834C39.7209 39.5123 40.0568 40.0475 40.4982 40.4693C40.9396 40.8872 41.4904 41.1958 42.131 41.3755C43.4904 41.7583 44.8576 42.0669 46.2287 42.3169C46.3732 42.3326 46.5178 42.3599 46.6584 42.3912C46.9475 42.4419 47.2365 42.4888 47.5256 42.5318C49.3381 42.8091 51.1467 42.9849 52.9514 43.0865C53.2991 43.0943 53.6233 43.3052 53.7561 43.6451L58.01 54.4771C58.2365 55.0552 58.6819 55.4927 59.217 55.7232C59.7521 55.9575 60.3732 55.9849 60.9553 55.7583C61.5295 55.5317 61.9592 55.0943 62.1897 54.563C62.4241 54.024 62.4553 53.395 62.2327 52.8052L57.971 41.4732C57.7288 40.8326 57.3616 40.2974 56.8851 39.8873C56.4124 39.4811 55.8304 39.192 55.1585 39.0475L47.3929 37.3639V37.36C46.9632 37.2662 46.6624 36.8678 46.7014 36.4225L47.2522 30.3483C46.5882 29.7545 45.9631 29.11 45.3733 28.4069C44.1663 26.9772 43.0881 25.3169 42.053 23.4067ZM49.5296 24.7348C50.428 25.8129 51.3968 26.6957 52.4984 27.3871C53.6156 28.0902 54.9086 28.6254 56.4281 28.9965C57.6625 29.2973 59.0492 29.4965 60.6156 29.5942C62.7015 28.5161 64.7914 27.7895 66.889 27.3989C69.0609 26.9965 71.2328 26.9536 73.4046 27.2583C73.8655 27.3208 74.1937 27.7348 74.1624 28.1918L73.5296 36.8402C73.4945 37.3246 73.0726 37.6918 72.5882 37.6567C72.5452 37.6527 72.4984 37.6488 72.4593 37.6371L68.9671 37.0863L74.8929 49.3593C75.0609 49.707 74.9788 50.1133 74.7171 50.371L73.8187 51.3749C74.7054 51.1914 75.6156 51.0937 76.5375 51.0937C78.2172 51.0937 79.8266 51.4101 81.3187 51.9804C82.8421 52.5664 84.2289 53.4257 85.4203 54.4921C85.5062 54.5585 85.5804 54.6445 85.639 54.7421C85.8812 55.164 85.7406 55.7031 85.3187 55.9452L82.9359 57.3319C83.8461 58.0702 84.6156 58.9725 85.2015 59.996C85.9984 61.3905 86.4554 63.0038 86.4554 64.7265C86.4554 67.3554 85.389 69.7382 83.6663 71.4648C81.9436 73.1875 79.5608 74.2539 76.928 74.2539C74.3186 74.2539 71.9553 73.2031 70.2327 71.5039C68.8343 70.1211 67.8616 68.3125 67.5296 66.2851L64.8773 67.8281C64.7875 67.8867 64.6859 67.9297 64.5765 67.9531C64.1 68.0547 63.6312 67.7539 63.5296 67.2773C63.4281 66.8203 63.3539 66.3476 63.2992 65.8554C63.2484 65.3711 63.221 64.8867 63.221 64.414C63.221 63.9883 63.2406 63.5586 63.2835 63.1367L61.6741 64.9336C61.5023 65.1289 61.2601 65.2266 61.0179 65.2266V65.2305L37.8029 65.2266C37.6584 67.6289 36.6271 69.793 35.0295 71.3907C33.3068 73.1134 30.924 74.1798 28.2912 74.1798C25.6623 74.1798 23.2795 73.1134 21.5529 71.3907C19.9552 69.793 18.9201 67.629 18.7795 65.2266H15.1076C14.6193 65.2266 14.2248 64.8321 14.2248 64.3438C14.2248 64.2227 14.2482 64.1094 14.2912 64.004C14.5763 63.125 14.8849 62.2813 15.217 61.4767H1.80296C1.31468 61.4767 0.920152 61.0821 0.920152 60.5938C0.920152 60.1056 1.31468 59.711 1.80296 59.711H16.018C16.4242 58.8985 16.8578 58.129 17.3266 57.4141H5.27556C4.78728 57.4141 4.39275 57.0196 4.39275 56.5313C4.39275 56.043 4.78728 55.6485 5.27556 55.6485H18.6306C19.0368 55.1602 19.4665 54.6993 19.9158 54.2735C21.0525 53.1915 22.3181 52.3126 23.7283 51.6563L24.4158 49.5665H21.9783C21.49 49.5665 21.0955 49.172 21.0955 48.6837V45.9298C21.0955 45.2462 21.2869 44.6056 21.615 44.0587H11.8611C11.3728 44.0587 10.9783 43.6642 10.9783 43.1759V39.129H2.27517C1.78689 39.129 1.39236 38.7345 1.39236 38.2462C1.39236 37.7579 1.78689 37.3634 2.27517 37.3634H10.9822V35.0665H6.79857C6.31029 35.0665 5.91576 34.6719 5.91576 34.1837C5.91576 33.6954 6.31029 33.3009 6.79857 33.3009H10.9822V23.1409C10.9822 22.6526 11.3767 22.258 11.865 22.258H32.717C33.2053 22.258 33.5998 22.6526 33.5998 23.1409V42.2889H39.9709C39.7287 42.1248 39.5021 41.9412 39.2873 41.7381C38.6389 41.1209 38.1467 40.3475 37.8381 39.4451C37.1194 37.324 36.7912 34.8474 36.7912 32.3279C36.7912 28.9881 37.3771 25.5506 38.4201 22.7849C39.5139 19.8826 41.1428 17.6833 43.1818 16.9958C43.631 16.8434 44.0959 16.7614 44.5724 16.7614C44.7052 16.7614 44.8654 16.7692 45.0451 16.7848C46.3029 16.8981 47.4826 17.4606 48.342 18.3082C49.2248 19.1754 49.7873 20.3434 49.7873 21.6363C49.7873 21.7457 49.7794 21.8785 49.7638 22.0387L49.5296 24.7348ZM63.5066 30.2075C64.741 29.7153 65.9754 29.3599 67.2058 29.1294C68.9167 28.813 70.6277 28.7427 72.3425 28.9068L71.8425 35.7662L67.5808 35.0904C67.1003 35.0162 66.6511 35.3404 66.573 35.8209C66.5457 36.0044 66.573 36.1841 66.6511 36.3404L73.0534 49.5944L70.2448 52.7272C70.237 52.735 70.2292 52.7428 70.2214 52.7506L64.2878 59.3756C64.2605 59.403 64.237 59.4264 64.2136 59.4577L60.6277 63.4616H41.3937C41.632 59.235 40.7843 56.0671 38.9289 53.8796C36.925 51.5163 33.8078 50.3523 29.6711 50.2819C29.6398 50.2779 29.6086 50.2779 29.5773 50.2819C28.2414 50.3444 26.9992 50.5436 25.8351 50.8756L26.2648 49.567H44.2218C43.3468 51.6139 42.9093 53.4537 43.0187 55.0397C43.1593 57.11 44.1671 58.7194 46.257 59.7624C46.382 59.8249 46.5187 59.8562 46.6516 59.8562H59.0346C59.1635 59.8562 59.2846 59.8288 59.39 59.7819C61.1712 59.0944 62.7103 58.1257 63.9564 56.8288C65.2181 55.5163 66.1673 53.8796 66.7689 51.864C66.7963 51.7742 66.808 51.6843 66.8041 51.5984C66.8939 48.5164 66.515 45.5203 65.7924 42.5828C65.1479 39.9734 64.2299 37.407 63.1244 34.8758C63.3548 34.7547 63.5658 34.6024 63.7494 34.4266C64.2611 33.9383 64.5892 33.2508 64.6049 32.4891L64.6088 32.4696H64.6049C64.6166 31.7118 64.3236 31.0204 63.8431 30.5165C63.7377 30.3993 63.6238 30.2974 63.5066 30.2075ZM61.3308 35.1723C62.4753 37.7426 63.4246 40.3481 64.0808 43.0004C64.7644 45.766 65.1238 48.5863 65.0496 51.4692C64.8074 52.2544 64.5066 52.9692 64.1472 53.6215C64.1433 53.145 64.0613 52.6645 63.8855 52.1957L59.6238 40.8637C59.2801 39.9458 58.7371 39.1684 58.0418 38.5668C57.3426 37.9653 56.4949 37.5434 55.5379 37.3324L48.5301 35.8129L48.9051 31.6567C49.116 31.8013 49.327 31.9419 49.5457 32.0786C51.1199 33.0708 52.8777 33.8169 54.9012 34.3325C56.7801 34.8052 58.9011 35.0825 61.3308 35.1723ZM43.5188 21.7973C43.593 21.5512 43.7571 21.3325 43.9993 21.1997H44.0032C44.2493 21.0669 44.5227 21.0473 44.7727 21.1176C45.0188 21.1919 45.2376 21.3559 45.3704 21.5981V21.602C46.2571 23.2309 47.1595 24.6411 48.1516 25.8403C49.1672 27.0669 50.2805 28.0747 51.5539 28.8794C52.8312 29.6841 54.2922 30.2896 56.0109 30.7114C57.3976 31.0513 58.9484 31.2661 60.7101 31.3638C60.7413 31.3677 60.7765 31.3677 60.8077 31.3677C61.1515 31.3872 61.4991 31.3989 61.8585 31.4106L61.8781 31.4145L61.882 31.4106C62.1515 31.4223 62.3937 31.5395 62.5656 31.7231C62.7452 31.9106 62.8507 32.1645 62.8468 32.4458L62.8429 32.4653H62.8468C62.8351 32.7348 62.7179 32.977 62.5343 33.1489C62.3624 33.313 62.132 33.4184 61.882 33.4302H61.8624H61.8117C59.3469 33.3637 57.214 33.0981 55.3312 32.6216C53.4835 32.1528 51.8898 31.4771 50.4757 30.5904C49.0538 29.6958 47.8273 28.5982 46.714 27.2779C45.5812 25.9381 44.5695 24.3717 43.5929 22.5709C43.464 22.3248 43.4446 22.0473 43.5188 21.7973ZM59.8198 57.6683C59.5151 57.8207 59.1948 57.9613 58.8706 58.0902H46.8666C45.5228 57.3597 44.8705 56.2816 44.7768 54.9222C44.6791 53.4574 45.1791 51.6449 46.1518 49.5667H48.5737C49.062 49.5667 49.4565 49.1722 49.4565 48.6839V45.93C49.4565 45.4378 49.3588 44.9652 49.1753 44.5355C50.2222 44.6566 51.273 44.7503 52.3276 44.8167L56.3745 55.1257C56.7807 56.1569 57.5698 56.9304 58.519 57.3445C58.9291 57.5203 59.3706 57.6332 59.8198 57.6683ZM46.2808 44.1133C46.6128 44.1993 46.9097 44.3711 47.1441 44.6055C47.4839 44.9454 47.6949 45.4141 47.6949 45.9258V47.7969L22.8629 47.8008V45.9297C22.8629 45.4141 23.0738 44.9493 23.4137 44.6094C23.7535 44.2696 24.2222 44.0586 24.7339 44.0586H45.824C45.8865 44.0586 45.949 44.0625 46.0075 44.0665C46.0974 44.0821 46.191 44.0977 46.2808 44.1133ZM44.7378 15.1563C44.8902 15.3048 45.0972 15.3985 45.3277 15.4063L45.4722 15.4102C45.5073 15.4962 45.5542 15.5782 45.6206 15.6524C46.2808 16.4259 47.1011 17.0508 48.0347 17.4805C48.9371 17.8946 49.937 18.129 50.9839 18.129C52.9331 18.129 54.6948 17.3399 55.9722 16.0626C57.2495 14.7853 58.0386 13.0235 58.0386 11.0743C58.0386 10.4727 57.9644 9.88286 57.8199 9.32426C57.6871 8.80864 57.4996 8.31646 57.2613 7.85156C57.4488 7.67187 57.5543 7.40625 57.5269 7.125C57.3277 5.1172 56.3746 3.3281 54.9605 2.0469C53.5543 0.7774 51.6949 0 49.6558 0C47.5894 0 45.7261 0.99609 44.3316 2.3945C42.7418 3.9843 41.7418 6.125 41.7418 7.914C41.7418 9.3476 42.0543 10.6718 42.527 11.8242C43.109 13.2304 43.9371 14.379 44.7378 15.1563ZM55.5618 8.39852C55.5774 8.44149 55.597 8.48837 55.6204 8.53133C55.8274 8.91024 55.9915 9.3243 56.1048 9.75793C56.2103 10.1759 56.2688 10.6173 56.2688 11.0743C56.2688 12.5352 55.6751 13.8555 54.7219 14.8126C53.7649 15.7697 52.4446 16.3634 50.9836 16.3634C50.1907 16.3634 49.4406 16.1916 48.7688 15.883C48.5188 15.7697 48.2806 15.6369 48.054 15.4845L51.7571 15.59C53.3157 15.6525 53.8704 14.8869 53.9212 13.7775L53.9251 13.7541C53.9603 12.8634 53.5501 11.8127 53.2142 10.9377C53.0579 10.5353 52.9212 10.1798 52.8821 9.98844C52.8314 9.72672 53.1282 9.44547 53.6361 9.15641C54.1361 8.87516 54.8001 8.62508 55.5618 8.39852ZM44.1558 11.1524C43.7652 10.2032 43.5074 9.10942 43.5074 7.91412C43.5074 6.57032 44.3082 4.91412 45.5777 3.64072C46.6715 2.54692 48.105 1.76572 49.6558 1.76572C51.2456 1.76572 52.6949 2.36728 53.7808 3.35162C54.7027 4.18756 55.3706 5.29692 55.6558 6.55082C54.5269 6.8477 53.523 7.20316 52.7691 7.62892C51.5816 8.3008 50.9371 9.17192 51.1519 10.3125C51.2183 10.6563 51.3823 11.086 51.5698 11.5703C51.8472 12.2891 52.187 13.1562 52.1636 13.6836V13.6914C52.1597 13.7813 52.0698 13.8438 51.8159 13.8321L45.7261 13.6563C45.1558 13.0352 44.5777 12.1797 44.1558 11.1524ZM18.0078 59.7114C18.4609 58.8833 18.9492 58.1176 19.4805 57.4145H26.8125C27.3008 57.4145 27.6953 57.02 27.6953 56.5317C27.6953 56.0434 27.3008 55.6489 26.8125 55.6489H21.0273C21.0625 55.6137 21.0976 55.5825 21.1328 55.5473C23.3516 53.434 26.1523 52.2035 29.6484 52.0395C33.2617 52.0981 35.9375 53.0629 37.5937 55.0161C39.164 56.8716 39.871 59.6606 39.6406 63.4614H16.3476C16.5976 62.7739 16.8593 62.1098 17.1444 61.477H23.871C24.3593 61.477 24.7539 61.0825 24.7539 60.5942C24.7539 60.106 24.3593 59.7114 23.871 59.7114H18.0078ZM0.88281 53.8598H16.5508C17.0391 53.8598 17.4336 53.4653 17.4336 52.977C17.4336 52.4887 17.0391 52.0942 16.5508 52.0942H0.88281C0.39453 52.0942 0 52.4887 0 52.977C0.003907 53.4653 0.39844 53.8598 0.88281 53.8598ZM5.48051 49.7973H19.5005C19.9888 49.7973 20.3833 49.4028 20.3833 48.9145C20.3833 48.4262 19.9888 48.0317 19.5005 48.0317H5.48051C4.99223 48.0317 4.5977 48.4262 4.5977 48.9145C4.5977 49.4028 4.99223 49.7973 5.48051 49.7973ZM23.8865 24.0273V30.6484H20.7068V24.0273H23.8865ZM71.4335 54.0393L65.6757 60.4651C65.457 61.0667 65.2851 61.6878 65.1718 62.3206C65.0507 62.9847 64.9882 63.6839 64.9882 64.4104C64.9882 64.8479 65.0116 65.2659 65.0546 65.6682L65.0585 65.6878L83.3435 55.0668C82.5349 54.4769 81.6443 53.9887 80.699 53.6254C79.4178 53.1332 78.0154 52.8597 76.5467 52.8597C75.6053 52.8597 74.699 52.9691 73.8397 53.1761C72.9921 53.3715 72.1913 53.6643 71.4335 54.0393ZM36.0385 65.2273H32.9369C32.808 66.2898 32.3197 67.2429 31.601 67.9617C30.7534 68.8094 29.5854 69.3328 28.2963 69.3328C27.0033 69.3328 25.8354 68.8094 24.9916 67.9617C24.2729 67.243 23.7885 66.2898 23.6557 65.2273H20.5541C20.6947 67.1414 21.5268 68.864 22.808 70.1453C24.2142 71.5515 26.1518 72.4187 28.2963 72.4187C30.4408 72.4187 32.3822 71.5515 33.7846 70.1453C35.0619 68.8641 35.8979 67.1414 36.0385 65.2273ZM31.1518 65.2273H25.4409C25.5542 65.8015 25.8393 66.3132 26.2378 66.7117C26.7651 67.2391 27.4917 67.5633 28.2964 67.5633C29.1011 67.5633 29.8276 67.2391 30.355 66.7117C30.7534 66.3133 31.0346 65.8016 31.1518 65.2273ZM81.2848 58.2937L78.0348 60.1804C78.8825 60.3875 79.6403 60.821 80.234 61.4187C81.0817 62.2664 81.6051 63.4343 81.6051 64.7234C81.6051 66.0125 81.0817 67.1843 80.234 68.0281C79.3863 68.8758 78.2184 69.3992 76.9293 69.3992C75.6363 69.3992 74.4684 68.8758 73.6246 68.0281C72.777 67.1805 72.2535 66.0125 72.2535 64.7234C72.2535 64.2742 72.316 63.8445 72.4332 63.4343L69.1832 65.321C69.3277 67.2429 70.1754 68.9694 71.4684 70.2468C72.8707 71.6335 74.8004 72.489 76.9293 72.489C79.0738 72.489 81.0152 71.6218 82.4176 70.2156C83.8238 68.8094 84.691 66.8679 84.691 64.7273C84.691 63.325 84.3199 62.0085 83.6715 60.8757C83.0817 59.8366 82.2613 58.9538 81.2848 58.2937ZM76.9293 67.6335C77.734 67.6335 78.4605 67.3093 78.9879 66.782C79.5153 66.2546 79.8395 65.5281 79.8395 64.7234C79.8395 63.9187 79.5153 63.1922 78.9879 62.6648C78.4606 62.1374 77.734 61.8132 76.9293 61.8132C76.1246 61.8132 75.3981 62.1374 74.8707 62.6648C74.3434 63.1921 74.0191 63.9187 74.0191 64.7234C74.0191 65.5281 74.3434 66.2546 74.8707 66.782C75.3981 67.3094 76.1285 67.6335 76.9293 67.6335Z" fill="white"/>
</svg>
